<svg xmlns="http://www.w3.org/2000/svg" width="256" height="256"><path fill="#1976D2" fill-opacity=".016" fill-rule="evenodd" d="M0 128.004v128.004l128.25-.254 128.25-.254.254-127.75L257.008 0H0v128.004m.485.496c0 70.4.119 99.053.265 63.672.146-35.38.146-92.98 0-128C.604 29.153.485 58.1.485 128.5"/><path fill="#1976D2" fill-opacity=".131" fill-rule="evenodd" d="M125.71 17.136c-4.356 5.711-7.726 14.23-8.374 21.169-.676 7.237 1.733 23.13 4.653 30.695.955 2.475 2.307 6.975 3.006 10 .698 3.025 1.714 6.359 2.258 7.41.926 1.789 1.05 1.8 1.964.168.536-.959 2.072-5.643 3.412-10.41a2323.788 2323.788 0 0 1 3.886-13.668c2.703-9.337 3.673-19.949 2.443-26.731-1.205-6.648-4.671-14.622-8.371-19.262l-2.247-2.819-2.63 3.448M92.051 45.75c.213 19.857 4.042 38.685 9.687 47.628 2.131 3.375 15.238 18.719 21.034 24.622 1.297 1.322 1.404-.104.894-12-.945-22.032-4.614-35.822-12.764-47.975C106.256 51.098 95.559 41 92.865 41c-.476 0-.842 2.138-.814 4.75m65.81-.948c-7.186 5.728-12.506 12.566-16.734 21.51-4.618 9.768-5.674 14.081-7.636 31.182-2.395 20.87-1.845 24.626 2.675 18.268 1.275-1.794 5.574-6.801 9.554-11.126 8.757-9.516 11.66-14.509 14.908-25.636 2.093-7.172 4.086-23.836 4.337-36.25.053-2.629-1.961-2.048-7.104 2.052M57.205 56.765c-1.708.569-1.504 2.993.856 10.184 3.224 9.82 6.101 13.412 13.249 16.543 12.017 5.262 14.815 6.762 20.725 11.113C95.319 97.022 98.229 99 98.503 99c1.12 0 .32-2.609-2.931-9.551-6.917-14.769-13.876-23.47-23.241-29.057-4.012-2.394-12.628-4.46-15.126-3.627m127.802 3.298c-6.78 3.737-9.998 6.737-15.489 14.437-6.226 8.73-13.754 24.5-11.697 24.5.403 0 3.105-1.783 6.005-3.962 2.9-2.179 8.288-5.359 11.973-7.068 14.074-6.527 15.693-7.534 18.427-11.47C196.388 73.388 201 60.461 201 57.513c0-.282-2.363-.505-5.25-.495-3.944.014-6.616.771-10.743 3.045M30.54 83.314c5.806 15.994 15.771 27.655 29.183 34.151 4.277 2.071 8.515 4.137 9.417 4.59 3.7 1.86 27.054 6.105 36.61 6.656 8.697.501 10.25.364 10.25-.906 0-.823-2.78-4.829-6.177-8.901-21.634-25.929-46.074-40.181-71.364-41.613l-10.317-.584 2.398 6.607m176.68-4.791c-18.072 3.924-37.606 15.535-51.916 30.859-8.636 9.247-15.627 18.286-14.968 19.353.762 1.233 17.625-.261 30.546-2.706 29.855-5.651 47.016-18.981 55.25-42.913 1.027-2.986 1.868-5.584 1.868-5.773 0-.893-15.207-.03-20.78 1.18M.486 96.023C-.798 98.1 13.99 113.457 23.72 120.151 36.859 129.192 57.439 134 82.992 134c9.289 0 17.105-.347 17.367-.771.262-.425-5.839-2.025-13.557-3.557-25.796-5.119-37.408-11.64-49.686-27.903l-4.133-5.474-8.242-.641c-12.302-.958-23.541-.787-24.255.369m228.308-.105c-5.461.557-5.839.783-8.798 5.262-5.309 8.037-15.136 16.352-24.759 20.951-6.778 3.24-12.155 4.853-23.987 7.197-8.387 1.662-15.25 3.392-15.25 3.846 0 .455 7.627.826 16.949.826 12.961 0 19.447-.482 27.562-2.048 12.842-2.478 25.405-6.935 31.489-11.17 11.767-8.191 25.085-22.218 23.512-24.763-.662-1.071-16.608-1.132-26.718-.101M119 135.05c0 4.902 1.705 8.37 6.276 12.761l3.446 3.312 4.014-4.56c3.826-4.347 5.264-7.949 5.264-13.188 0-2.333-.167-2.375-9.5-2.375H119v4.05m-48 4.565c-5.337.656-26.269 5.501-28.25 6.539-.962.504-1.75 1.624-1.75 2.488 0 1.128.495 1.351 1.75.792.962-.429 6.7-2.076 12.75-3.659 14.705-3.847 28.803-4.691 38.721-2.317 8.399 2.01 18.339 6.46 22.784 10.2 3.456 2.907 5.297 2.438 2.511-.64-3.131-3.461-11.232-8.12-18.528-10.657-7.024-2.443-21.599-3.777-29.988-2.746m93 .334c-9.457 1.788-17.998 5.89-26.985 12.959-3.877 3.05-1.707 3.504 2.618.548 10.811-7.389 23.701-11.456 36.31-11.456 8.357 0 27.95 3.7 34.913 6.592 3.664 1.522 5.358 1.128 4.521-1.052-.322-.84-5.695-2.645-13.472-4.525-13.831-3.345-29.658-4.626-37.905-3.066m-94.233 5.083c-10.406 1.753-26.218 6.452-28.599 8.5-4.359 3.749-1.83 4.574 5.931 1.934C58.712 151.516 76.149 148 84.12 148c12.144 0 22.382 3.908 35.63 13.598 4.142 3.03 2.307-.378-2.466-4.579-11.876-10.454-29.788-14.972-47.517-11.987m94.233-.085c-9.574 1.805-19.038 6.745-26.867 14.023-4.096 3.809-3.423 5.293.792 1.747 8.952-7.533 22.937-12.717 34.306-12.717 7.428 0 26.369 3.773 37.269 7.424 3.85 1.29 7.154 2.206 7.341 2.036 1.064-.964-1.404-4.726-3.677-5.603-14.327-5.533-38.474-8.926-49.164-6.91m-92 6.757c-22.124 3.818-32.518 7.241-33.467 11.022-.347 1.38-.418 2.723-.158 2.983.261.26 6.92-1.25 14.799-3.356 13.627-3.641 15.058-3.827 29.326-3.802 14.14.025 15.385.187 21.717 2.831 3.695 1.543 9.227 4.563 12.295 6.711 3.067 2.149 5.838 3.907 6.157 3.907 1.414 0-.871-6.353-2.911-8.094-4.565-3.899-14.456-8.832-21.738-10.842-7.062-1.949-18.994-2.573-26.02-1.36m86.152 1.299c-7.52 2.009-15.904 6.235-21.185 10.678-2.038 1.715-2.967 3.408-2.967 5.408 0 1.601.216 2.911.48 2.911s2.851-1.795 5.75-3.989c2.898-2.195 8.645-5.232 12.77-6.75 6.906-2.542 8.61-2.756 21.5-2.7 13.644.059 21.814 1.45 41.25 7.027 1.974.566 2.25.28 2.25-2.332 0-2.823-.399-3.11-7.75-5.565-18.847-6.295-39.22-8.129-52.098-4.688m-32.902 12.659c-.687.278-1.25 1.277-1.25 2.221 0 4.23 6.086 5.693 8.091 1.946.963-1.799.851-2.398-.656-3.5-1.848-1.351-3.932-1.576-6.185-.667m29.25 16.755c-1.65.737-4.329 2.752-5.954 4.479-2.496 2.652-3.008 4.104-3.304 9.371-.484 8.607 1.295 11.109 12.287 17.278 7.582 4.256 9.056 5.524 10.676 9.185 1.563 3.534 1.699 4.914.808 8.222-1.307 4.853-4.213 7.048-9.331 7.048-6.049 0-9.149-2.487-12.697-10.184-1.732-3.758-3.562-6.577-4.067-6.265-.505.312-.918 4.401-.918 9.087v8.521l3.002-.659c1.841-.405 4.985-.001 8.13 1.044 6.042 2.007 13.422 1.479 18.215-1.303 3.673-2.132 8.596-10.464 8.63-14.606.034-4.207-4.711-12.196-8.862-14.921-1.988-1.304-6.191-3.544-9.339-4.976-6.973-3.172-10.132-7.474-9.354-12.738.672-4.547 3.751-7 8.789-7 5.204 0 10.192 4.739 11.965 11.369.681 2.547 1.595 4.631 2.031 4.631.436 0 .793-4.05.793-9s-.412-9-.917-9c-.504 0-1.098.545-1.32 1.21-.303.909-1.721.784-5.698-.5-6.287-2.031-9.515-2.1-13.565-.293M47 183.434c0 .817 1.173 1.569 2.727 1.75 4.633.537 5.242 3.353 5.258 24.332.018 22.395.614 24.368 8.605 28.484 3.991 2.056 6.279 2.5 12.882 2.5 10.353 0 16.637-2.295 20.055-7.325 2.404-3.537 2.473-4.143 2.479-21.657.006-21.147.774-25.145 5.041-26.25 5.968-1.547 3.45-2.768-6.297-3.054-8.226-.242-9.75-.046-9.75 1.25 0 .945.903 1.536 2.345 1.536 1.29 0 3.202.948 4.25 2.106 1.742 1.925 1.905 3.848 1.905 22.435v20.329l-2.943 3.071c-1.619 1.69-4.544 3.516-6.5 4.06-4.85 1.347-12.407 1.252-15.585-.196-5.033-2.293-5.89-5.677-6.292-24.851-.44-21.015.422-25.724 4.868-26.614 1.624-.324 2.952-1.209 2.952-1.965 0-1.096-2.636-1.375-13-1.375-10.621 0-13 .262-13 1.434m64-.059c0 .756 1.265 1.628 2.811 1.937a5.702 5.702 0 0 1 4 3.172c1.475 3.238 1.649 41.177.206 44.973-.658 1.729-1.984 2.786-4 3.19-1.66.332-3.017 1.235-3.017 2.007 0 1.149 2.409 1.353 13.25 1.125 7.981-.168 13.25-.677 13.25-1.279 0-.55-1.233-1.142-2.739-1.315-5.334-.614-5.761-2.556-5.761-26.185 0-23.507.533-26 5.557-26 1.505 0 2.443-.576 2.443-1.5 0-1.256-2.111-1.5-13-1.5-10.364 0-13 .279-13 1.375m73 .125c0 .924.938 1.5 2.443 1.5 5.024 0 5.557 2.493 5.557 26s-.533 26-5.557 26c-1.505 0-2.443.576-2.443 1.5 0 1.259 2.167 1.5 13.5 1.5s13.5-.241 13.5-1.5c0-.907-.927-1.5-2.345-1.5-1.29 0-3.09-.823-4-1.829-1.437-1.587-1.655-4.796-1.655-24.345 0-20.543.16-22.661 1.829-24.171 1.006-.91 2.806-1.655 4-1.655 1.263 0 2.171-.627 2.171-1.5 0-1.259-2.167-1.5-13.5-1.5s-13.5.241-13.5 1.5"/><path fill="#1976D2" fill-opacity=".44" fill-rule="evenodd" d="M126.388 16.917c-1.161 1.421-3.411 5.058-5 8.083-2.788 5.31-2.885 5.967-2.796 19 .09 13.156.211 13.879 4.75 28.36 2.562 8.173 4.689 15.148 4.726 15.5.038.352 2.348-6.785 5.135-15.86 4.766-15.523 5.073-17.181 5.181-28 .106-10.49-.117-11.998-2.539-17.163-1.46-3.115-3.71-7.202-5-9.083l-2.345-3.42-2.112 2.583M92 41.8c0 .44.476 6.853 1.058 14.25 1.787 22.704 6.201 35.809 15.141 44.95 2.421 2.475 6.806 7.413 9.744 10.974l5.343 6.474-.551-14.974c-1.024-27.791-8.136-44.937-24.086-58.068C93.299 41.001 92 40.297 92 41.8m66 3.558c-15.869 11.668-25.069 36.133-24.98 66.431l.019 6.711 3.727-4.5c2.05-2.475 6.508-7.484 9.906-11.131 7.733-8.299 12.052-16.76 14.396-28.203 2.079-10.145 3.683-32.679 2.324-32.641-.491.013-2.917 1.513-5.392 3.333M56.807 57.527c-1.322 1.321 2.623 13.335 6.014 18.316 3.414 5.015 4.362 5.684 13.179 9.305 5.225 2.145 12.198 5.92 15.496 8.388s6.153 4.017 6.345 3.442c.191-.574-1.939-5.727-4.734-11.45-6.48-13.267-15.552-23.054-24.456-26.386-5.45-2.039-10.704-2.755-11.844-1.615m129.668 2.325c-8.775 4.151-17.069 13.596-23.569 26.839-2.815 5.737-4.905 10.643-4.644 10.905.262.261 3.66-1.719 7.553-4.401 3.893-2.682 11.151-6.584 16.13-8.672 8.273-3.469 9.311-4.219 12.082-8.721C196.72 71.425 200 61.809 200 58.29c0-2.268-7.183-1.438-13.525 1.562M29.56 79.25c6.716 21.747 19.54 35.108 40.63 42.333 11.482 3.933 45.81 9.094 45.81 6.887 0-1.765-8.937-12.516-17.444-20.985C79.111 88.127 55.349 77.137 32.683 77.02c-3.502-.018-3.76.166-3.123 2.23m183.409-1.274c-14.467 1.867-33.833 10.837-46.471 21.525C156.567 107.9 141 125.352 141 128.088c0 .823 2.192.954 7.75.465 40.832-3.591 62.352-14.419 73.2-36.832 2.208-4.562 4.304-9.74 4.657-11.507L227.25 77l-4.375.131c-2.406.072-6.864.452-9.906.845M1.454 97.074C.568 98.508 20.293 117.936 26 121.251c6.729 3.909 20.428 8.622 29.881 10.279 5.547.973 14.507 1.429 26.5 1.348l18.119-.122-8-1.342c-13.466-2.259-24.632-5.517-32.697-9.542-8.499-4.242-19.055-13.399-23.448-20.343-2.167-3.426-3.482-4.453-6.297-4.918-6.288-1.041-27.891-.691-28.604.463m223.872-.378c-1.196.233-2.953 1.634-3.905 3.114-11.263 17.51-25.777 25.688-55.421 31.227l-9.5 1.775 18 .091c26.095.132 43.261-3.571 56.846-12.261C240.371 114.869 255 100.154 255 96.85c0-.84-25.472-.973-29.674-.154M119 134.684c0 3.7 3.641 10.888 6.755 13.338l2.581 2.03 2.921-2.776c3.551-3.374 5.257-6.57 6.155-11.526l.679-3.75H119v2.684m-50 5.984c-14.103 2.233-28 5.948-28 7.484 0 1.196.304 1.138 12-2.269 13.364-3.892 32.826-5.068 42.571-2.571 6.893 1.765 15.053 5.392 20.929 9.3l4 2.66-2.5-2.723c-3.848-4.191-13.73-9.178-21.697-10.949-6.543-1.455-20.906-1.945-27.303-.932m89.13 1.406c-7.114 1.836-15.059 5.919-19.412 9.975-3.06 2.85-1.621 2.403 5.042-1.565 11.684-6.961 15.948-7.984 33.24-7.981 16.203.003 14.63-.262 36.25 6.116.963.283 1.75.072 1.75-.471 0-1.415-7.9-3.842-20.014-6.151-13.231-2.521-26.903-2.492-36.856.077m-94.63 4.85c-12.352 2.658-22.263 6.017-22.938 7.776-.893 2.327.088 2.78 3.075 1.419 1.455-.663 7.645-2.599 13.754-4.303 15.694-4.376 32.475-5.075 42.727-1.778 3.9 1.254 10.082 4.276 13.737 6.716 5.365 3.581 6.122 3.884 3.932 1.574-4.184-4.411-13.162-9.423-20.553-11.473-8.431-2.338-22.68-2.308-33.734.069m95.287.133c-7.086 2.022-15.806 6.781-19.489 10.638-2.981 3.12-2.021 2.898 3.3-.763 2.452-1.687 7.034-4.267 10.18-5.734 5.374-2.505 6.604-2.666 20.222-2.661 12.8.005 15.673.333 24.5 2.795 5.5 1.534 11.697 3.437 13.77 4.229 4.736 1.808 4.73 1.808 4.73-.379 0-1.361-1.695-2.367-6.75-4.007-19.234-6.238-37.737-7.748-50.463-4.118M69.5 152.682c-12.786 1.627-29.206 6.817-30.058 9.5-.343 1.083-.371 2.222-.062 2.532.31.309 6.088-.843 12.842-2.561 29.3-7.455 49.763-5.68 64.535 5.595 2.343 1.789 4.481 3.252 4.752 3.252.27 0 .491-1.05.491-2.333 0-4.489-12.715-12.444-24.231-15.159-5.737-1.353-20.698-1.79-28.269-.826m90.5.414c-5.708 1.113-9.127 2.507-16 6.526-7.326 4.283-10 6.944-10 9.949 0 2.475.039 2.464 5.25-1.442 16.378-12.277 38.664-13.814 69.461-4.79 4.516 1.323 8.389 2.227 8.607 2.01.218-.218.19-1.471-.061-2.786-.384-2.009-1.756-2.794-8.607-4.929-16.325-5.087-36.282-6.948-48.65-4.538m-34.559 13.346c-1.91 1.42-1.907 1.477.244 3.658 2.136 2.165 2.247 2.174 4.933.415l2.748-1.801-2.294-1.857c-2.759-2.234-3.144-2.263-5.631-.415m27.382 17.336c-5.44 3.589-7.323 7.158-7.323 13.882 0 5.505.333 6.556 2.934 9.271 1.614 1.685 5.756 4.481 9.205 6.214 8.655 4.349 11.532 7.581 12.111 13.604.4 4.165.092 5.285-2.203 8.012-3.399 4.041-8.433 5.141-13.175 2.879-3.531-1.684-9.372-9.646-9.372-12.777 0-.96-.45-2.023-1-2.363-.637-.394-1 2.492-1 7.949 0 8.121.098 8.507 1.871 7.399 1.474-.92 2.753-.816 6.02.492 5.134 2.054 15.245 2.158 19.04.196 6.957-3.598 10.366-12.006 8.172-20.155-1.402-5.204-4.84-8.295-14.692-13.208-4.875-2.431-8.827-5.154-9.945-6.853-2.574-3.913-2.386-8.711.46-11.741 6.55-6.973 17.605-1.822 19.682 9.171 1.117 5.91 2.392 3.378 2.392-4.75 0-7.772-.5-9.1-2.623-6.977-.697.697-2.183.538-4.668-.5-4.945-2.066-12.55-1.944-15.886.255M47.5 184c.34.55 1.422 1 2.404 1s2.643.947 3.691 2.104c1.706 1.884 1.957 4.268 2.405 22.8.567 23.483.961 24.813 8.328 28.158 6.29 2.856 19.773 2.692 25.652-.312 8.179-4.179 8.452-5.046 9.02-28.67.522-21.684 1.026-24.08 5.063-24.08 1.001 0 2.097-.45 2.437-1 .395-.639-2.656-1-8.441-1-4.982 0-9.059.248-9.059.552 0 .304 1.382 1.034 3.071 1.623 1.732.603 3.477 2.136 4 3.513.511 1.343.928 10.625.927 20.627-.001 22.252-.578 24.007-8.998 27.404-9.677 3.905-17.447 2.197-21.466-4.719-1.858-3.196-2.034-5.204-2.034-23.145 0-17.914.168-19.83 1.905-21.75 1.048-1.158 2.735-2.105 3.75-2.105 1.015 0 1.845-.45 1.845-1 0-.614-4.853-1-12.559-1-8.118 0-12.34.354-11.941 1m64 0c.34.55 1.466 1 2.502 1 4.402 0 4.998 3.075 4.998 25.788 0 12.904-.412 22.114-1.043 23.292-.574 1.072-2.486 2.581-4.25 3.353-2.978 1.303-2.295 1.41 9.543 1.485 7.012.045 12.75-.137 12.75-.405 0-.267-1.508-1.116-3.351-1.886-4.276-1.787-4.625-3.757-4.632-26.127-.007-20.188.82-24.317 5.04-25.161 6.515-1.303 2.257-2.339-9.616-2.339-8.118 0-12.34.354-11.941 1m74 0c.34.55 1.249 1 2.02 1 .771 0 2.32.985 3.441 2.189 1.923 2.063 2.039 3.431 2.039 24 0 20.478-.122 21.933-2 23.811-1.1 1.1-2.648 2-3.441 2-.793 0-1.719.45-2.059 1-.4.647 3.89 1 12.141 1 7.626 0 12.377-.363 11.809-.903-.522-.497-1.839-1.063-2.925-1.259-3.88-.699-4.496-4.234-4.496-25.838s.616-25.139 4.496-25.838c1.086-.196 2.403-.762 2.925-1.259.568-.54-4.183-.903-11.809-.903-8.251 0-12.541.353-12.141 1"/><path fill="#1976D2" fill-opacity=".402" fill-rule="evenodd" d="M125.266 19.296c-1.229 1.805-3.419 6.189-4.866 9.743-2.409 5.917-2.587 7.303-2.112 16.461.285 5.5 1.002 11.35 1.593 13 1.391 3.883 6.829 22.113 7.756 26 .667 2.797.835 2.561 2.48-3.5.971-3.575 3.362-12.35 5.313-19.5 3.975-14.561 4.426-21.621 1.884-29.491-1.817-5.626-7.184-15.177-8.814-15.683-.55-.171-2.005 1.166-3.234 2.97M93.484 52.634c1.579 27.104 4.896 37.141 16.41 49.649 3.654 3.97 8.169 9.002 10.033 11.183l3.391 3.965-.59-13.465c-1.204-27.522-9.934-47.921-25.176-58.832l-4.701-3.365.633 10.865m60.123-2.384c-8.498 8.595-12.635 16.006-16.106 28.852-2.707 10.017-5.063 33.072-3.64 35.614.679 1.213 1.245.96 3.058-1.364 1.223-1.568 4.564-5.327 7.423-8.352 7.983-8.444 10.403-12.173 13.693-21.094 4.092-11.098 7.082-40.912 4.102-40.908-.749.001-4.588 3.265-8.53 7.252m-96.249 8.26c-.689 1.796 1.409 9.096 4.194 14.593C64.028 77.989 69.135 83 71.64 83c3.374 0 18.118 8.191 24.11 13.395 2.704 2.348 2.712 2.294.493-3.395-5.416-13.885-16.785-28.559-24.928-32.177-6.133-2.724-13.341-3.919-13.957-2.313M194 58.15c-9.45 1.728-16.409 6.428-23.268 15.713-3.916 5.3-12.304 21.898-11.483 22.719.232.232 2.858-1.31 5.836-3.427 6.14-4.363 13.628-8.263 19.454-10.131 2.179-.699 4.946-2.167 6.149-3.263 4.05-3.689 10.482-20.197 8.512-21.847-.385-.323-2.725-.216-5.2.236M30 78.592c0 2.455 5.677 15.079 8.846 19.671 9.023 13.076 20.172 20.188 39.378 25.12 10.713 2.751 27.12 4.95 33.147 4.443l3.871-.326-4.122-5.5c-10.613-14.16-27.58-28.505-41.971-35.484C56.079 80.178 30 74.899 30 78.592m187.5-.558c-12.99 1.177-28.711 6.601-39.923 13.776-11.071 7.083-25.203 20.6-33.919 32.44l-2.76 3.75 5.301-.02c8.034-.029 25.329-2.565 34.301-5.028 19.742-5.421 33.839-16.344 41.29-31.992 4.326-9.086 5.972-14.058 4.568-13.805-.472.085-4.458.481-8.858.879M239.037 97l-15.462.5-2.332 3.5c-10.602 15.915-29.567 26.509-54.258 30.309l-9.485 1.46 15.178.115c17.628.135 27.483-1.012 39.322-4.577 13.343-4.017 20.762-8.261 30.415-17.399 7.866-7.445 13.362-13.724 12.444-14.216-.197-.105-7.317.033-15.822.308M2.62 98.25c3.949 6.686 19.286 20.662 26.88 24.495 6.46 3.261 22.38 7.997 30.822 9.169 4.303.597 14.653 1.044 23 .993l15.178-.094-10.5-1.832c-24.885-4.342-41.563-13.576-51.465-28.494L32.893 97H17.388c-12.132 0-15.345.272-14.768 1.25m116.956 34.627c-.298.482.115 3.087.918 5.79 1.614 5.437 6.5 10.933 8.899 10.012 2.433-.933 6.371-7.823 7.105-12.429l.678-4.25h-8.529c-4.691 0-8.773.394-9.071.877m-49.814 8.83c1.244.239 3.044.23 4-.02s-.062-.446-2.262-.435c-2.2.011-2.982.216-1.738.455m22.166.458c6.523.933 18.939 5.722 22.555 8.701 1.877 1.547 1.907 1.537.56-.198-3.384-4.355-18.536-9.846-26.342-9.545-1.828.071-.443.518 3.227 1.042m72.822-.459c1.238.238 3.262.238 4.5 0 1.238-.239.225-.434-2.25-.434s-3.488.195-2.25.434m18 0c1.238.238 3.262.238 4.5 0 1.238-.239.225-.434-2.25-.434s-3.488.195-2.25.434m-127.25 1.8c-11.3 3.019-13.5 3.781-13.5 4.675 0 .515.337.745.75.51 1.481-.844 14.892-4.737 19.276-5.595 3.379-.662 3.74-.883 1.474-.901-1.65-.014-5.25.576-8 1.311m100.5-.569c-3.233.99-13 5.946-13 6.597 0 .275 2.363-.703 5.25-2.174 2.887-1.47 7.275-3.237 9.75-3.927 2.475-.69 3.6-1.256 2.5-1.258-1.1-.002-3.125.341-4.5.762m36.269-.244c.973.254 2.323.237 3-.037.677-.274-.119-.481-1.769-.461-1.65.02-2.204.244-1.231.498m5.231.828c5.342 1.941 17.498 5.171 17.491 4.648-.012-.853-14.226-5.195-16.661-5.09-1.007.043-1.38.242-.83.442M76 145.732c-10.896.912-31.944 6.021-34.433 8.358-2.23 2.093.847 1.693 11.832-1.539 22.3-6.562 40.058-6.9 51.731-.985 2.788 1.412 5.294 2.343 5.569 2.068.86-.859-8.959-5.309-14.199-6.434-5.659-1.215-15.287-1.905-20.5-1.468m89 .422c-5.654.79-21 6.815-21 8.244 0 .273 2.813-.81 6.25-2.408 14.351-6.67 30.3-6.252 56.11 1.471 8.233 2.463 11.326 2.691 9.073.667-.513-.461-4.758-2.013-9.433-3.45-14.134-4.343-29.87-6.079-41-4.524m-94.648 6.908c-4.482.434-10.107 1.436-12.5 2.225-2.394.79-7.39 2.24-11.102 3.223-5.913 1.565-6.75 2.078-6.75 4.138 0 2.827-.306 2.807 6.782.452 14.756-4.903 33.774-7.017 46.718-5.193 8.507 1.198 19.231 5.734 25.25 10.679 3.085 2.535 3.25 2.566 3.25.609 0-4.979-16.927-14.468-28.899-16.2-7.431-1.076-11.069-1.065-22.749.067m92.148.046c-10.924 1.574-26.782 10.355-27.739 15.36-.401 2.098-.212 2.308 1.33 1.483.989-.529 2.048-1.366 2.353-1.861 1.093-1.768 12.146-7.421 17.056-8.723 13.484-3.575 35.082-2.268 52.182 3.159 9.492 3.013 9.534 3.014 9.138.244-.274-1.912-1.893-2.693-11.32-5.468-6.324-1.861-15.464-3.676-21.5-4.269-11.736-1.153-13.006-1.148-21.5.075m-22.095 4.142-1.905 2.25 2.25-1.905c2.114-1.79 2.705-2.595 1.905-2.595-.19 0-1.202 1.012-2.25 2.25m-15.181 9.926c-.859.859-.88 1.534-.078 2.5 1.486 1.791 4.322 1.67 5.917-.252 1.084-1.307 1.063-1.732-.127-2.485-1.987-1.257-4.315-1.16-5.712.237m28.165 16.729c-5.101 3.11-7.783 7.747-7.84 13.55-.067 6.915 2.278 9.823 12.459 15.454 10.215 5.649 12.518 8.472 12.418 15.218-.101 6.767-3.309 10.061-10.67 10.954l-5.256.637 5.282.141c9.307.248 16.518-4.796 18.32-12.817 2.028-9.026-2.348-15.403-14.693-21.411-8.094-3.939-12.409-8.381-12.409-12.773 0-4.05 1.517-6.593 5.314-8.908 1.752-1.068 2.511-1.943 1.686-1.943-.825 0-2.9.854-4.611 1.898m15.342 2.136c1.736 1.697 3.686 4.745 4.333 6.772 1.398 4.377 3.539 7.016 2.586 3.187-.343-1.375-.629-4.623-.636-7.219-.011-3.762-.315-4.603-1.501-4.147-.819.314-2.939.064-4.713-.554l-3.225-1.124 3.156 3.085m-115.592-.132c2.318 1.874 2.37 2.301 2.861 23.436l.5 21.528 2.894 3.018c3.309 3.452 10.303 6.157 15.534 6.007l3.572-.103-3-.725c-3.945-.955-6.554-2.67-9-5.916-1.854-2.461-2-4.205-2-23.96v-21.307l2.5-1.921 2.5-1.922-9.361-.022-9.361-.022 2.361 1.909m41.406.546c2.43 2.429 2.457 2.663 2.664 22.75l.21 20.295.593-20.5c.326-11.275.682-20.595.79-20.711.109-.116 1.183-1.129 2.387-2.25l2.188-2.039H92.091l2.454 2.455m21.226-1.786c3.516 1.415 4.229 5.858 4.229 26.347 0 20.839-.349 22.938-4.367 26.234-2.059 1.689-1.785 1.742 7.934 1.544l10.067-.205-2.567-2.208-2.567-2.208v-23.175c0-23.149.003-23.177 2.361-25.086l2.361-1.912-9.361.079c-5.149.043-8.789.309-8.09.59m74.594 1.404 2.635 2.072v45.71l-3.25 2.58-3.25 2.579 10.608-.148 10.608-.148-3.108-2.777-3.108-2.777v-44.337l2.806-2.414 2.806-2.413H187.73l2.635 2.073M143.978 224c-.061.275-.207 3.501-.326 7.168-.197 6.106-.066 6.589 1.557 5.72 1.226-.656 2.686-.477 4.732.582 4.612 2.385 4.772 1.845.69-2.335-2.076-2.126-4.397-5.614-5.159-7.75-.761-2.137-1.434-3.66-1.494-3.385m-48.403 7.765c-.335 1.053-1.725 2.513-3.09 3.243-1.365.731-2.296 1.514-2.069 1.741.227.227 1.341-.084 2.475-.691 2.162-1.157 4.622-4.878 3.781-5.719-.269-.269-.763.372-1.097 1.426m-15.325 7.924c.963.252 2.537.252 3.5 0 .963-.251.175-.457-1.75-.457s-2.713.206-1.75.457"/></svg>